<?xml version="1.0" standalone="no"?>
<!DOCTYPE svg PUBLIC "-//W3C//DTD SVG 20010904//EN"
 "http://www.w3.org/TR/2001/REC-SVG-20010904/DTD/svg10.dtd">
<svg version="1.0" xmlns="http://www.w3.org/2000/svg"
 width="373.537094pt" height="384.890657pt" viewBox="0 0 373.537094 384.890657"
 preserveAspectRatio="xMidYMid meet">
<metadata>
Created by potrace 1.12, written by Peter Selinger 2001-2015
</metadata>
<g transform="translate(-84.967184,448.890657) scale(0.100000,-0.100000)"
fill="#fff" stroke="none">
<path d="M3595 4476 c-54 -24 -87 -70 -93 -125 -2 -27 -1 -62 2 -77 5 -17 71
-92 172 -194 l164 -166 0 -286 c0 -256 2 -292 20 -350 49 -158 181 -268 342
-286 l63 -7 0 -935 0 -935 -28 -47 c-66 -113 -219 -140 -320 -57 -75 61 -71
33 -77 714 l-5 610 -24 58 c-45 112 -144 208 -258 249 -46 17 -89 22 -205 26
l-148 4 0 717 c0 575 -3 726 -14 767 -41 156 -171 280 -326 313 -41 9 -268 11
-865 9 l-810 -3 -58 -24 c-111 -44 -207 -143 -250 -258 l-22 -58 -3 -1747 -2
-1748 1175 0 1175 0 0 855 0 855 110 0 c122 0 170 -13 192 -52 10 -18 14 -149
18 -623 l5 -600 26 -67 c36 -92 80 -158 150 -223 108 -99 258 -153 394 -142
184 16 343 121 426 282 68 132 64 44 64 1420 l0 1250 -27 45 c-39 66 -794 815
-840 835 -45 18 -83 19 -123 1z m-825 -956 l0 -530 -745 0 -745 0 0 530 0 530
745 0 745 0 0 -530z"/>
</g>
</svg>
