<svg width="1920" height="159" viewBox="0 0 1920 159" fill="none" xmlns="http://www.w3.org/2000/svg">
<rect x="511" width="158.191" height="511" transform="rotate(90 511 0)" fill="#272727"/>
<rect x="511" y="3.76245" width="6.8407" height="511" transform="rotate(90 511 3.76245)" fill="white"/>
<rect x="511" y="146.562" width="6.8407" height="511" transform="rotate(90 511 146.562)" fill="white"/>
<rect x="511" y="74.3926" width="9.40596" height="74.9056" transform="rotate(90 511 74.3926)" fill="#FFC700"/>
<rect x="394.708" y="74.3926" width="9.40596" height="74.9056" transform="rotate(90 394.708 74.3926)" fill="#FFC700"/>
<rect x="278.416" y="74.3926" width="9.40596" height="74.9056" transform="rotate(90 278.416 74.3926)" fill="#FFC700"/>
<rect x="162.124" y="74.3926" width="9.40596" height="74.9056" transform="rotate(90 162.124 74.3926)" fill="#FFC700"/>
<rect x="45.832" y="74.3926" width="9.40596" height="45.8327" transform="rotate(90 45.832 74.3926)" fill="#FFC700"/>
<rect x="985" width="158.191" height="511" transform="rotate(90 985 0)" fill="#272727"/>
<rect x="985" y="3.76245" width="6.8407" height="511" transform="rotate(90 985 3.76245)" fill="white"/>
<rect x="985" y="146.562" width="6.8407" height="511" transform="rotate(90 985 146.562)" fill="white"/>
<rect x="985" y="74.3926" width="9.40596" height="74.9056" transform="rotate(90 985 74.3926)" fill="#FFC700"/>
<rect x="868.708" y="74.3926" width="9.40596" height="74.9056" transform="rotate(90 868.708 74.3926)" fill="#FFC700"/>
<rect x="752.416" y="74.3926" width="9.40596" height="74.9056" transform="rotate(90 752.416 74.3926)" fill="#FFC700"/>
<rect x="636.124" y="74.3926" width="9.40596" height="74.9056" transform="rotate(90 636.124 74.3926)" fill="#FFC700"/>
<rect x="519.832" y="74.3926" width="9.40596" height="45.8327" transform="rotate(90 519.832 74.3926)" fill="#FFC700"/>
<rect x="1459" width="158.191" height="511" transform="rotate(90 1459 0)" fill="#272727"/>
<rect x="1459" y="3.76245" width="6.8407" height="511" transform="rotate(90 1459 3.76245)" fill="white"/>
<rect x="1459" y="146.562" width="6.8407" height="511" transform="rotate(90 1459 146.562)" fill="white"/>
<rect x="1459" y="74.3926" width="9.40596" height="74.9056" transform="rotate(90 1459 74.3926)" fill="#FFC700"/>
<rect x="1342.71" y="74.3926" width="9.40596" height="74.9056" transform="rotate(90 1342.71 74.3926)" fill="#FFC700"/>
<rect x="1226.42" y="74.3926" width="9.40596" height="74.9056" transform="rotate(90 1226.42 74.3926)" fill="#FFC700"/>
<rect x="1110.12" y="74.3926" width="9.40596" height="74.9056" transform="rotate(90 1110.12 74.3926)" fill="#FFC700"/>
<rect x="993.832" y="74.3926" width="9.40596" height="45.8327" transform="rotate(90 993.832 74.3926)" fill="#FFC700"/>
<rect x="1920" width="158.191" height="511" transform="rotate(90 1920 0)" fill="#272727"/>
<rect x="1920" y="3.76245" width="6.8407" height="511" transform="rotate(90 1920 3.76245)" fill="white"/>
<rect x="1920" y="146.562" width="6.8407" height="511" transform="rotate(90 1920 146.562)" fill="white"/>
<rect x="1920" y="74.3926" width="9.40596" height="74.9056" transform="rotate(90 1920 74.3926)" fill="#FFC700"/>
<rect x="1803.71" y="74.3926" width="9.40596" height="74.9056" transform="rotate(90 1803.71 74.3926)" fill="#FFC700"/>
<rect x="1687.42" y="74.3926" width="9.40596" height="74.9056" transform="rotate(90 1687.42 74.3926)" fill="#FFC700"/>
<rect x="1571.12" y="74.3926" width="9.40596" height="74.9056" transform="rotate(90 1571.12 74.3926)" fill="#FFC700"/>
<rect x="1454.83" y="74.3926" width="9.40596" height="45.8327" transform="rotate(90 1454.83 74.3926)" fill="#FFC700"/>
</svg>
